<svg viewBox="0 0 512 512" xml:space="preserve" xmlns="http://www.w3.org/2000/svg" enable-background="new 0 0 512 512"><path d="M453.14 183.77c-1.328.332-296.636 80.361-296.636 80.361-5.7 1.6-11.522 2.429-17.188 2.459-22.696.134-42.891-12.463-42.728-39.01.066-10.389 3.247-22.912 10.613-37.647-26.028 30.567-50.988 68.477-51.239 96.811-.096 10.661 3.306 19.969 11.47 27.022 11.75 10.146 24.693 13.728 37.576 13.748 18.825.026 37.518-7.568 52.155-13.424 24.651-9.858 297.129-128.185 297.129-128.185 2.629-1.315 2.135-2.958-1.152-2.135z" fill-rule="evenodd" clip-rule="evenodd" fill="#ffffff" class="fill-1b1b1b"></path></svg>